# xmcd
#
# Track frame offsets: 
#        150
#        21437
#        33950
#        51090
#        71142
#        88040
#        108095
#        119830
#        133192
#        145712
#        158200
#        171470
#        185167
#        198005
#        210617
#        224092
#
# Disc length: 3153 seconds
#
# Revision: 2
# Processed by: cddbd v1.5.2PL0 Copyright (c) Steve Scherf et al.
# Submitted via: ExactAudioCopy v0.99pb4
#
DISCID=fa0c4f10
DTITLE=Various Artist - Motown 30th Anniversary Collection Disc 2
DYEAR=1988
DGENRE=Pop
TTITLE0=Dazz Band - Let It Whip
TTITLE1=Temptations - I Wish It Would Rain
TTITLE2=DeBarge - Rhythm Of The Night
TTITLE3=Smokey Robinson - Cruisin'
TTITLE4=Stevie Wonder - Part-Time Lover
TTITLE5=Diana Ross And Lionel Richie - Endless Love
TTITLE6=Four Tops - Standing In The Shadows Of Love
TTITLE7=Marvin Gaye - How Sweet It Is (To Be Loved By You)
TTITLE8=Marvelettes - Playboy
TTITLE9=Miracles - Mickey's Monkey
TTITLE10=Supremes - Love Child
TTITLE11=Jackson Five - The Love You Save
TTITLE12=Isley Brothers - This Old Heart Of Mine (Is Weak For You)
TTITLE13=Four Tops - It's The Same Old Song
TTITLE14=Stevie Wonder - You Are The Sunshine Of My Life
TTITLE15=Mary Wells - Two Lovers
EXTD=
EXTT0=
EXTT1=
EXTT2=
EXTT3=
EXTT4=
EXTT5=
EXTT6=
EXTT7=
EXTT8=
EXTT9=
EXTT10=
EXTT11=
EXTT12=
EXTT13=
EXTT14=
EXTT15=
PLAYORDER=
